<mxfile host="app.diagrams.net" modified="2025-10-08T23:22:50.349762Z" agent="python" version="22.0.0"><diagram id="1759965770349778" name="Current_Architecture"><mxGraphModel dx="1200" dy="800" grid="1" gridSize="10" guides="1" tooltips="1" connect="1" arrows="1" fold="1" page="1" pageScale="1" pageWidth="2200" pageHeight="1400" math="0" shadow="0"><root><mxCell id="0" /><mxCell id="1" parent="0" /><mxCell id="group" value="Current — Docker Compose Network" style="shape=swimlane;rounded=1;horizontal=0;align=center;verticalAlign=top;startSize=30;collapsible=0;" vertex="1" parent="1"><mxGeometry x="60" y="80" width="1800" height="1000" as="geometry" /></mxCell><mxCell id="client" value="Client: React (Vite) SPA (5173)" style="rounded=1;whiteSpace=wrap;html=1;" vertex="1" parent="1"><mxGeometry x="100" y="120" width="360" height="100" as="geometry" /></mxCell><mxCell id="backend" value="Backend: Node.js/Express (5000)&#10;Prisma ORM" style="rounded=1;whiteSpace=wrap;html=1;" vertex="1" parent="group"><mxGeometry x="520" y="260" width="360" height="120" as="geometry" /></mxCell><mxCell id="prisma" value="Prisma Client/Migrations" style="rounded=1;whiteSpace=wrap;dashed=1;html=1;" vertex="1" parent="group"><mxGeometry x="520" y="420" width="360" height="90" as="geometry" /></mxCell><mxCell id="postgres" value="Postgres (5432)" style="shape=cylinder3;whiteSpace=wrap;html=1;" vertex="1" parent="group"><mxGeometry x="1080" y="260" width="260" height="150" as="geometry" /></mxCell><mxCell id="pgadmin" value="pgAdmin (5050)" style="rounded=1;whiteSpace=wrap;html=1;" vertex="1" parent="group"><mxGeometry x="1080" y="480" width="260" height="100" as="geometry" /></mxCell><mxCell id="note" value="docker-compose services: backend, postgres, pgadmin" style="shape=note;whiteSpace=wrap;html=1;" vertex="1" parent="group"><mxGeometry x="820" y="120" width="340" height="120" as="geometry" /></mxCell><mxCell id="e1" value="" style="endArrow=classic;" edge="1" parent="1" source="client" target="backend"><mxGeometry relative="1" as="geometry" /></mxCell><mxCell id="e2" value="" style="endArrow=classic;" edge="1" parent="1" source="backend" target="postgres"><mxGeometry relative="1" as="geometry" /></mxCell><mxCell id="e3" value="" style="endArrow=classic;" edge="1" parent="1" source="pgadmin" target="postgres"><mxGeometry relative="1" as="geometry" /></mxCell><mxCell id="e4" value="" style="endArrow=classic;dashed=1;" edge="1" parent="1" source="backend" target="prisma"><mxGeometry relative="1" as="geometry" /></mxCell></root></mxGraphModel></diagram></mxfile>